# Blender 3.4.1
# www.blender.org
mtllib spike.mtl
o Cone
v 0.000000 -99.000000 -25.000000
v 4.877258 -99.000000 -24.519630
v 9.567086 -99.000000 -23.096987
v 13.889256 -99.000000 -20.786739
v 17.677670 -99.000000 -17.677670
v 20.786739 -99.000000 -13.889256
v 23.096987 -99.000000 -9.567086
v 24.519630 -99.000000 -4.877258
v 25.000000 -99.000000 0.000000
v 24.519630 -99.000000 4.877258
v 23.096987 -99.000000 9.567086
v 20.786739 -99.000000 13.889256
v 17.677670 -99.000000 17.677670
v 13.889256 -99.000000 20.786739
v 9.567086 -99.000000 23.096987
v 4.877258 -99.000000 24.519630
v 0.000000 -99.000000 25.000000
v -4.877258 -99.000000 24.519630
v -9.567086 -99.000000 23.096987
v -13.889256 -99.000000 20.786739
v -17.677670 -99.000000 17.677670
v -20.786739 -99.000000 13.889256
v -23.096987 -99.000000 9.567086
v -24.519630 -99.000000 4.877258
v -25.000000 -99.000000 0.000000
v -24.519630 -99.000000 -4.877258
v -23.096987 -99.000000 -9.567086
v -20.786739 -99.000000 -13.889256
v -17.677670 -99.000000 -17.677670
v -13.889256 -99.000000 -20.786739
v -9.567086 -99.000000 -23.096987
v -4.877258 -99.000000 -24.519630
v 0.000000 101.000000 0.000000
vn -0.0000 -0.1441 -0.9896
vn -0.0000 1.0000 -0.0000
vn 0.1931 -0.1441 -0.9706
vn 0.3787 -0.1441 -0.9142
vn 0.5498 -0.1441 -0.8228
vn 0.6997 -0.1441 -0.6997
vn 0.8228 -0.1441 -0.5498
vn 0.9142 -0.1441 -0.3787
vn 0.9706 -0.1441 -0.1931
vn 0.9896 -0.1441 -0.0000
vn 0.9706 -0.1441 0.1931
vn 0.9142 -0.1441 0.3787
vn 0.8228 -0.1441 0.5498
vn 0.6997 -0.1441 0.6997
vn 0.5498 -0.1441 0.8228
vn 0.3787 -0.1441 0.9142
vn 0.1931 -0.1441 0.9706
vn -0.0000 -0.1441 0.9896
vn -0.1931 -0.1441 0.9706
vn -0.3787 -0.1441 0.9142
vn -0.5498 -0.1441 0.8228
vn -0.6997 -0.1441 0.6997
vn -0.8228 -0.1441 0.5498
vn -0.9142 -0.1441 0.3787
vn -0.9706 -0.1441 0.1931
vn -0.9896 -0.1441 -0.0000
vn -0.9706 -0.1441 -0.1931
vn -0.9142 -0.1441 -0.3787
vn -0.8228 -0.1441 -0.5498
vn -0.6997 -0.1441 -0.6997
vn -0.5498 -0.1441 -0.8228
vn -0.3787 -0.1441 -0.9142
vn -0.1931 -0.1441 -0.9706
vt 0.750000 0.490000
vt 0.250000 0.490000
vt 0.296822 0.485388
vt 0.796822 0.485388
vt 0.341844 0.471731
vt 0.841844 0.471731
vt 0.383337 0.449553
vt 0.883337 0.449553
vt 0.419706 0.419706
vt 0.919706 0.419706
vt 0.449553 0.383337
vt 0.949553 0.383337
vt 0.471731 0.341844
vt 0.971731 0.341844
vt 0.485388 0.296822
vt 0.985388 0.296822
vt 0.490000 0.250000
vt 0.990000 0.250000
vt 0.485388 0.203178
vt 0.985388 0.203178
vt 0.471731 0.158156
vt 0.971731 0.158156
vt 0.449553 0.116663
vt 0.949553 0.116663
vt 0.419706 0.080294
vt 0.919706 0.080294
vt 0.383337 0.050447
vt 0.883337 0.050447
vt 0.341844 0.028269
vt 0.841844 0.028269
vt 0.296822 0.014612
vt 0.796822 0.014612
vt 0.250000 0.010000
vt 0.750000 0.010000
vt 0.203178 0.014612
vt 0.703178 0.014612
vt 0.158156 0.028269
vt 0.658156 0.028269
vt 0.116663 0.050447
vt 0.616663 0.050447
vt 0.080294 0.080294
vt 0.580294 0.080294
vt 0.050447 0.116663
vt 0.550447 0.116663
vt 0.028269 0.158156
vt 0.528269 0.158156
vt 0.014612 0.203178
vt 0.514612 0.203178
vt 0.010000 0.250000
vt 0.510000 0.250000
vt 0.014612 0.296822
vt 0.514612 0.296822
vt 0.028269 0.341844
vt 0.528269 0.341844
vt 0.050447 0.383337
vt 0.550447 0.383337
vt 0.080294 0.419706
vt 0.580294 0.419706
vt 0.116663 0.449553
vt 0.616663 0.449553
vt 0.658156 0.471731
vt 0.158156 0.471731
vt 0.703178 0.485388
vt 0.203178 0.485388
vt 0.250000 0.250000
s 1
usemtl Material.001
f 1/2/1 33/65/2 2/3/3
f 2/3/3 33/65/2 3/5/4
f 3/5/4 33/65/2 4/7/5
f 4/7/5 33/65/2 5/9/6
f 5/9/6 33/65/2 6/11/7
f 6/11/7 33/65/2 7/13/8
f 7/13/8 33/65/2 8/15/9
f 8/15/9 33/65/2 9/17/10
f 9/17/10 33/65/2 10/19/11
f 10/19/11 33/65/2 11/21/12
f 11/21/12 33/65/2 12/23/13
f 12/23/13 33/65/2 13/25/14
f 13/25/14 33/65/2 14/27/15
f 14/27/15 33/65/2 15/29/16
f 15/29/16 33/65/2 16/31/17
f 16/31/17 33/65/2 17/33/18
f 17/33/18 33/65/2 18/35/19
f 18/35/19 33/65/2 19/37/20
f 19/37/20 33/65/2 20/39/21
f 20/39/21 33/65/2 21/41/22
f 21/41/22 33/65/2 22/43/23
f 22/43/23 33/65/2 23/45/24
f 23/45/24 33/65/2 24/47/25
f 24/47/25 33/65/2 25/49/26
f 25/49/26 33/65/2 26/51/27
f 26/51/27 33/65/2 27/53/28
f 27/53/28 33/65/2 28/55/29
f 28/55/29 33/65/2 29/57/30
f 29/57/30 33/65/2 30/59/31
f 30/59/31 33/65/2 31/62/32
f 1/1/1 2/4/3 3/6/4 4/8/5 5/10/6 6/12/7 7/14/8 8/16/9 9/18/10 10/20/11 11/22/12 12/24/13 13/26/14 14/28/15 15/30/16 16/32/17 17/34/18 18/36/19 19/38/20 20/40/21 21/42/22 22/44/23 23/46/24 24/48/25 25/50/26 26/52/27 27/54/28 28/56/29 29/58/30 30/60/31 31/61/32 32/63/33
f 31/62/32 33/65/2 32/64/33
f 32/64/33 33/65/2 1/2/1
